<mxfile host="Electron" modified="2024-04-30T07:35:35.381Z" agent="Mozilla/5.0 (Windows NT 10.0; Win64; x64) AppleWebKit/537.36 (KHTML, like Gecko) draw.io/24.2.5 Chrome/120.0.6099.109 Electron/28.1.0 Safari/537.36" etag="loue1ASA-XqkzkTR7ABQ" version="24.2.5" type="device">
  <diagram id="TwIBi7seexwvAYXu6eLI" name="第 1 页">
    <mxGraphModel dx="1050" dy="669" grid="0" gridSize="10" guides="1" tooltips="1" connect="1" arrows="1" fold="1" page="1" pageScale="1" pageWidth="827" pageHeight="1169" math="0" shadow="0">
      <root>
        <mxCell id="0" />
        <mxCell id="1" parent="0" />
        <mxCell id="KFOu-qDNYjytRKlLMSOe-49" style="edgeStyle=orthogonalEdgeStyle;rounded=0;orthogonalLoop=1;jettySize=auto;exitX=0.5;exitY=1;exitDx=0;exitDy=0;exitPerimeter=0;entryX=0.5;entryY=0;entryDx=0;entryDy=0;fontFamily=Times New Roman;fontSize=13;strokeWidth=1;fontStyle=0" parent="1" source="KFOu-qDNYjytRKlLMSOe-1" target="KFOu-qDNYjytRKlLMSOe-11" edge="1">
          <mxGeometry relative="1" as="geometry" />
        </mxCell>
        <mxCell id="KFOu-qDNYjytRKlLMSOe-1" value="main.py" style="strokeWidth=1;shape=mxgraph.flowchart.start_1;fontFamily=Times New Roman;fontSize=13;fontStyle=0" parent="1" vertex="1">
          <mxGeometry x="324" y="210" width="100" height="60" as="geometry" />
        </mxCell>
        <mxCell id="KFOu-qDNYjytRKlLMSOe-2" value="only_preprocess" style="strokeWidth=1;shape=mxgraph.flowchart.decision;fontFamily=Times New Roman;fontSize=13;whiteSpace=wrap;fontStyle=0" parent="1" vertex="1">
          <mxGeometry x="324" y="392" width="100" height="100" as="geometry" />
        </mxCell>
        <mxCell id="KFOu-qDNYjytRKlLMSOe-5" value="1" style="text;align=center;verticalAlign=middle;resizable=0;points=[];autosize=1;strokeColor=none;fillColor=none;fontFamily=Times New Roman;fontSize=13;strokeWidth=1;fontStyle=0" parent="1" vertex="1">
          <mxGeometry x="444.5" y="418" width="25" height="28" as="geometry" />
        </mxCell>
        <mxCell id="KFOu-qDNYjytRKlLMSOe-35" style="edgeStyle=orthogonalEdgeStyle;rounded=0;orthogonalLoop=1;jettySize=auto;exitX=0.5;exitY=1;exitDx=0;exitDy=0;exitPerimeter=0;entryX=0.5;entryY=0;entryDx=0;entryDy=0;fontFamily=Times New Roman;fontSize=13;strokeWidth=1;fontStyle=0" parent="1" source="KFOu-qDNYjytRKlLMSOe-8" target="KFOu-qDNYjytRKlLMSOe-13" edge="1">
          <mxGeometry relative="1" as="geometry" />
        </mxCell>
        <mxCell id="KFOu-qDNYjytRKlLMSOe-8" value="重复实验&#xa;i=0;i&lt;repeat" style="strokeWidth=1;shape=mxgraph.flowchart.loop_limit;fontFamily=Times New Roman;fontSize=13;fontStyle=0" parent="1" vertex="1">
          <mxGeometry x="241" y="489" width="100" height="60" as="geometry" />
        </mxCell>
        <mxCell id="KFOu-qDNYjytRKlLMSOe-9" value="i=i+1&#xa;重复实验" style="strokeWidth=1;shape=mxgraph.flowchart.loop_limit;direction=west;fontFamily=Times New Roman;fontSize=13;fontStyle=0" parent="1" vertex="1">
          <mxGeometry x="241" y="629" width="100" height="60" as="geometry" />
        </mxCell>
        <mxCell id="KFOu-qDNYjytRKlLMSOe-11" value="接收可变参数" style="verticalLabelPosition=middle;verticalAlign=middle;shape=hexagon;perimeter=hexagonPerimeter2;arcSize=6;size=0.27;align=center;horizontal=1;labelPosition=center;strokeWidth=1;fontFamily=Times New Roman;fontSize=13;fontStyle=0" parent="1" vertex="1">
          <mxGeometry x="324" y="299" width="100" height="60" as="geometry" />
        </mxCell>
        <mxCell id="KFOu-qDNYjytRKlLMSOe-13" value="初始化并训练模型" style="rounded=0;absoluteArcSize=1;arcSize=14;strokeWidth=1;fontFamily=Times New Roman;fontSize=13;whiteSpace=wrap;fontStyle=0" parent="1" vertex="1">
          <mxGeometry x="241" y="571" width="100" height="36" as="geometry" />
        </mxCell>
        <mxCell id="KFOu-qDNYjytRKlLMSOe-14" style="edgeStyle=orthogonalEdgeStyle;rounded=0;orthogonalLoop=1;jettySize=auto;exitX=0.5;exitY=1;exitDx=0;exitDy=0;entryX=0.5;entryY=0;entryDx=0;entryDy=0;entryPerimeter=0;fontFamily=Times New Roman;fontSize=13;strokeWidth=1;fontStyle=0" parent="1" source="KFOu-qDNYjytRKlLMSOe-11" target="KFOu-qDNYjytRKlLMSOe-2" edge="1">
          <mxGeometry relative="1" as="geometry" />
        </mxCell>
        <mxCell id="KFOu-qDNYjytRKlLMSOe-44" style="edgeStyle=orthogonalEdgeStyle;rounded=0;orthogonalLoop=1;jettySize=auto;exitX=0.5;exitY=1;exitDx=0;exitDy=0;exitPerimeter=0;entryX=0.5;entryY=0;entryDx=0;entryDy=0;fontFamily=Times New Roman;fontSize=13;strokeWidth=1;fontStyle=0" parent="1" source="KFOu-qDNYjytRKlLMSOe-21" target="KFOu-qDNYjytRKlLMSOe-23" edge="1">
          <mxGeometry relative="1" as="geometry" />
        </mxCell>
        <mxCell id="KFOu-qDNYjytRKlLMSOe-21" value="dataset_name" style="strokeWidth=1;shape=mxgraph.flowchart.decision;fontFamily=Times New Roman;fontSize=13;fontStyle=0" parent="1" vertex="1">
          <mxGeometry x="407" y="480" width="100" height="100" as="geometry" />
        </mxCell>
        <mxCell id="KFOu-qDNYjytRKlLMSOe-23" value="处理dataset_name对应的数据集" style="rounded=0;absoluteArcSize=1;arcSize=14;strokeWidth=1;horizontal=1;whiteSpace=wrap;align=center;fontFamily=Times New Roman;fontSize=13;fontStyle=0" parent="1" vertex="1">
          <mxGeometry x="402" y="624" width="110" height="44" as="geometry" />
        </mxCell>
        <mxCell id="KFOu-qDNYjytRKlLMSOe-28" value="程序终止" style="strokeWidth=1;shape=mxgraph.flowchart.terminator;fontFamily=Times New Roman;fontSize=13;fontStyle=0" parent="1" vertex="1">
          <mxGeometry x="324" y="692" width="100" height="60" as="geometry" />
        </mxCell>
        <mxCell id="KFOu-qDNYjytRKlLMSOe-29" value="存在" style="text;align=center;verticalAlign=middle;resizable=0;points=[];autosize=1;strokeColor=none;fillColor=none;fontFamily=Times New Roman;fontSize=13;strokeWidth=1;fontStyle=0" parent="1" vertex="1">
          <mxGeometry x="417" y="585" width="44" height="28" as="geometry" />
        </mxCell>
        <mxCell id="KFOu-qDNYjytRKlLMSOe-30" value="不存在" style="text;align=center;verticalAlign=middle;resizable=0;points=[];autosize=1;strokeColor=none;fillColor=none;fontFamily=Times New Roman;fontSize=13;strokeWidth=1;fontStyle=0" parent="1" vertex="1">
          <mxGeometry x="365" y="502" width="57" height="28" as="geometry" />
        </mxCell>
        <mxCell id="KFOu-qDNYjytRKlLMSOe-34" style="edgeStyle=orthogonalEdgeStyle;rounded=0;orthogonalLoop=1;jettySize=auto;exitX=0.5;exitY=0;exitDx=0;exitDy=0;exitPerimeter=0;entryX=0;entryY=0.5;entryDx=0;entryDy=0;entryPerimeter=0;fontFamily=Times New Roman;fontSize=13;strokeWidth=1;fontStyle=0" parent="1" source="KFOu-qDNYjytRKlLMSOe-9" target="KFOu-qDNYjytRKlLMSOe-28" edge="1">
          <mxGeometry relative="1" as="geometry" />
        </mxCell>
        <mxCell id="KFOu-qDNYjytRKlLMSOe-36" style="edgeStyle=orthogonalEdgeStyle;rounded=0;orthogonalLoop=1;jettySize=auto;exitX=0.5;exitY=1;exitDx=0;exitDy=0;entryX=0.5;entryY=1;entryDx=0;entryDy=0;entryPerimeter=0;fontFamily=Times New Roman;fontSize=13;strokeWidth=1;fontStyle=0" parent="1" source="KFOu-qDNYjytRKlLMSOe-13" target="KFOu-qDNYjytRKlLMSOe-9" edge="1">
          <mxGeometry relative="1" as="geometry" />
        </mxCell>
        <mxCell id="KFOu-qDNYjytRKlLMSOe-37" style="edgeStyle=orthogonalEdgeStyle;rounded=0;orthogonalLoop=1;jettySize=auto;exitX=0;exitY=0.5;exitDx=0;exitDy=0;exitPerimeter=0;entryX=0.5;entryY=0;entryDx=0;entryDy=0;entryPerimeter=0;fontFamily=Times New Roman;fontSize=13;strokeWidth=1;fontStyle=0" parent="1" source="KFOu-qDNYjytRKlLMSOe-2" target="KFOu-qDNYjytRKlLMSOe-8" edge="1">
          <mxGeometry relative="1" as="geometry" />
        </mxCell>
        <mxCell id="KFOu-qDNYjytRKlLMSOe-41" value="0" style="text;align=center;verticalAlign=middle;resizable=0;points=[];autosize=1;strokeColor=none;fillColor=none;fontFamily=Times New Roman;fontSize=13;strokeWidth=1;fontStyle=0" parent="1" vertex="1">
          <mxGeometry x="278.5" y="418" width="25" height="28" as="geometry" />
        </mxCell>
        <mxCell id="KFOu-qDNYjytRKlLMSOe-42" style="edgeStyle=orthogonalEdgeStyle;rounded=0;orthogonalLoop=1;jettySize=auto;exitX=1;exitY=0.5;exitDx=0;exitDy=0;exitPerimeter=0;entryX=0.5;entryY=0;entryDx=0;entryDy=0;entryPerimeter=0;fontFamily=Times New Roman;fontSize=13;strokeWidth=1;fontStyle=0" parent="1" source="KFOu-qDNYjytRKlLMSOe-2" target="KFOu-qDNYjytRKlLMSOe-21" edge="1">
          <mxGeometry relative="1" as="geometry" />
        </mxCell>
        <mxCell id="KFOu-qDNYjytRKlLMSOe-47" style="edgeStyle=orthogonalEdgeStyle;rounded=0;orthogonalLoop=1;jettySize=auto;exitX=0;exitY=0.5;exitDx=0;exitDy=0;exitPerimeter=0;entryX=0.5;entryY=0;entryDx=0;entryDy=0;entryPerimeter=0;fontFamily=Times New Roman;fontSize=13;strokeWidth=1;fontStyle=0" parent="1" source="KFOu-qDNYjytRKlLMSOe-21" target="KFOu-qDNYjytRKlLMSOe-28" edge="1">
          <mxGeometry relative="1" as="geometry" />
        </mxCell>
        <mxCell id="KFOu-qDNYjytRKlLMSOe-48" style="edgeStyle=orthogonalEdgeStyle;rounded=0;orthogonalLoop=1;jettySize=auto;exitX=0.5;exitY=1;exitDx=0;exitDy=0;entryX=1;entryY=0.5;entryDx=0;entryDy=0;entryPerimeter=0;fontFamily=Times New Roman;fontSize=13;strokeWidth=1;fontStyle=0" parent="1" source="KFOu-qDNYjytRKlLMSOe-23" target="KFOu-qDNYjytRKlLMSOe-28" edge="1">
          <mxGeometry relative="1" as="geometry" />
        </mxCell>
        <mxCell id="KFOu-qDNYjytRKlLMSOe-57" style="edgeStyle=orthogonalEdgeStyle;rounded=0;orthogonalLoop=1;jettySize=auto;exitX=1;exitY=0.5;exitDx=0;exitDy=0;fontFamily=Times New Roman;fontSize=13;strokeWidth=1;fontStyle=0" parent="1" source="KFOu-qDNYjytRKlLMSOe-52" target="KFOu-qDNYjytRKlLMSOe-11" edge="1">
          <mxGeometry relative="1" as="geometry" />
        </mxCell>
        <mxCell id="KFOu-qDNYjytRKlLMSOe-52" value="data_dict.json" style="verticalLabelPosition=middle;verticalAlign=middle;shape=process;rounded=1;size=0.14;arcSize=6;labelPosition=center;align=center;fontFamily=Times New Roman;fontSize=13;strokeWidth=1;fontStyle=0" parent="1" vertex="1">
          <mxGeometry x="159" y="310" width="115" height="38" as="geometry" />
        </mxCell>
        <mxCell id="KFOu-qDNYjytRKlLMSOe-55" style="edgeStyle=orthogonalEdgeStyle;rounded=0;orthogonalLoop=1;jettySize=auto;exitX=0.5;exitY=1;exitDx=0;exitDy=0;entryX=0;entryY=0.5;entryDx=0;entryDy=0;fontFamily=Times New Roman;fontSize=13;strokeWidth=1;fontStyle=0" parent="1" source="KFOu-qDNYjytRKlLMSOe-53" target="KFOu-qDNYjytRKlLMSOe-13" edge="1">
          <mxGeometry relative="1" as="geometry" />
        </mxCell>
        <mxCell id="KFOu-qDNYjytRKlLMSOe-53" value="utils.py&#xa;MTSDNet.py" style="verticalLabelPosition=middle;verticalAlign=middle;shape=process;rounded=1;size=0.14;arcSize=6;labelPosition=center;align=center;fontFamily=Times New Roman;fontSize=13;strokeWidth=1;fontStyle=0" parent="1" vertex="1">
          <mxGeometry x="159" y="364" width="115" height="38" as="geometry" />
        </mxCell>
        <mxCell id="KFOu-qDNYjytRKlLMSOe-56" style="edgeStyle=orthogonalEdgeStyle;rounded=0;orthogonalLoop=1;jettySize=auto;exitX=0.5;exitY=1;exitDx=0;exitDy=0;entryX=1;entryY=0.5;entryDx=0;entryDy=0;fontFamily=Times New Roman;fontSize=13;strokeWidth=1;fontStyle=0" parent="1" source="KFOu-qDNYjytRKlLMSOe-54" target="KFOu-qDNYjytRKlLMSOe-23" edge="1">
          <mxGeometry relative="1" as="geometry" />
        </mxCell>
        <mxCell id="KFOu-qDNYjytRKlLMSOe-54" value="preprocess.py&#xa;window.py" style="verticalLabelPosition=middle;verticalAlign=middle;shape=process;rounded=1;size=0.14;arcSize=6;labelPosition=center;align=center;fontFamily=Times New Roman;fontSize=13;strokeWidth=1;fontStyle=0" parent="1" vertex="1">
          <mxGeometry x="481" y="364" width="115" height="38" as="geometry" />
        </mxCell>
      </root>
    </mxGraphModel>
  </diagram>
</mxfile>
